<svg xmlns="http://www.w3.org/2000/svg" viewBox="0 0 64 64"><path fill="#ffa733" d="M11 57V13h42V7H33l-2-4H3v54a4 4 0 1 0 8 0Z"/><path fill="#ffe477" d="M53 13H11v44a3.995 3.995 0 0 1-4 4h50a4 4 0 0 0 4-4V13ZM26 48a3 3 0 1 1 3-3 3 3 0 0 1-3 3Zm14-3a3 3 0 1 1 3-3 3 3 0 0 1-3 3Zm3-14-14 3v-5l14-3Z"/><path fill="#ff9811" d="m29 34 14-3v-5l-14 3v5z"/><circle cx="26" cy="45" r="3" fill="#ff7956"/><circle cx="40" cy="42" r="3" fill="#ff7956"/><path fill="#231f20" d="M61 12h-7V7a1 1 0 0 0-1-1H33.618L31.9 2.553A1 1 0 0 0 31 2H3a1 1 0 0 0-1 1v54a5.006 5.006 0 0 0 5 5h50a5.006 5.006 0 0 0 5-5V13a1 1 0 0 0-1-1Zm-51 1v44a3 3 0 0 1-6 0V4h26.382L32.1 7.447A1 1 0 0 0 33 8h19v4H11a1 1 0 0 0-1 1Zm50 44a3 3 0 0 1-3 3H11a4.986 4.986 0 0 0 1-3V14h48Z"/><path fill="#231f20" d="M26 49a4 4 0 0 0 4-4V34.809l12-2.572v6.319A3.959 3.959 0 0 0 40 38a4 4 0 1 0 4 4V26a1 1 0 0 0-1.21-.978l-14 3A1 1 0 0 0 28 29v12.556A3.959 3.959 0 0 0 26 41a4 4 0 0 0 0 8Zm14-5a2 2 0 1 1 2-2 2 2 0 0 1-2 2Zm2-16.763v2.954l-12 2.572v-2.954ZM26 43a2 2 0 1 1-2 2 2 2 0 0 1 2-2Z"/></svg>