<svg xmlns="http://www.w3.org/2000/svg" viewBox="0 0 512 512"><path fill="none" stroke="#000" stroke-linecap="round" stroke-linejoin="round" stroke-miterlimit="2.613" stroke-width="7.999" d="M228 180H112c-6.6 0-12-5.4-12-12s5.4-12 12-12h240m-124 80H112c-6.6 0-12-5.4-12-12s5.4-12 12-12h116m-48 136h-68c-6.6 0-12-5.4-12-12s5.4-12 12-12h116m0-32H112c-6.6 0-12-5.4-12-12s5.4-12 12-12h116m36-76.7 128.9-26.2c4.2-.8 7.9-1.2 8.6-1.2 7.7 0 10.5 5.1 10.5 12v172c-.4 23.1-24 32-40 32-18.2 0-40-10.1-40-32 0-28 37.5-34.3 56-21.9V220l-112 22.7V380c-.4 23.1-24 32-40 32-18.2 0-40-10.1-40-32 0-28 37.5-34.3 56-21.9V204c0-5.7 4.2-11.1 12-12.7h0zM112 100h240c6.6 0 12 5.4 12 12s-5.4 12-12 12H112c-6.6 0-12-5.4-12-12s5.4-12 12-12z" clip-rule="evenodd"/></svg>